<svg version="1.1"
  xmlns:xlink="http://www.w3.org/1999/xlink"
  xmlns="http://www.w3.org/2000/svg"
  viewBox="160.0000000000009 37 300 300"
  width="300" height="300">
  <defs>
    <path d="M268.24 112.84C264.07 112.85 260.01 113.08 256 113.52C256 116.04 256.02 136.27 256.02 138.8C260.01 138.25 264.11 137.93 268.26 137.92C318.28 137.87 358.85 178.35 358.9 228.37C358.92 235.88 358 243.17 356.29 250.14C358.85 250.14 379.36 250.11 381.93 250.11C383.28 243.06 384 235.79 384 228.34C383.91 164.48 332.09 112.78 268.24 112.84" id="c3WlYHo4Xz"></path><path d="M264.49 168.89C261.6 168.89 258.76 169.1 256 169.51C256 171.44 256 186.86 256 188.78C258.75 188.19 261.57 187.86 264.51 187.85C286.72 187.83 307.06 205.8 307.08 228.01C307.1 236.19 306.4 243.78 302.21 250.14C304.34 250.14 321.39 250.11 323.52 250.11C326.26 243.27 326.06 235.83 326.05 228C326.01 195.33 297.16 168.85 264.49 168.89" id="c2SsjBDuHH"></path><path d="M273.01 214.19L273.1 214.2L273.18 214.22L273.27 214.24L273.35 214.27L273.43 214.3L273.51 214.33L273.59 214.37L273.66 214.41L287.94 222.65L288.01 222.69L288.09 222.74L288.16 222.79L288.22 222.85L288.28 222.91L288.34 222.97L288.4 223.03L288.45 223.1L288.5 223.17L288.55 223.24L288.59 223.31L288.63 223.39L288.66 223.47L288.7 223.55L288.72 223.63L288.75 223.71L288.77 223.79L288.78 223.88L288.79 223.96L288.8 224.05L288.8 224.14L288.8 240.63L288.8 240.71L288.79 240.8L288.78 240.89L288.77 240.97L288.75 241.05L288.72 241.14L288.7 241.22L288.66 241.3L288.63 241.37L288.59 241.45L288.55 241.52L288.5 241.6L288.45 241.66L288.4 241.73L288.34 241.8L288.28 241.86L288.22 241.92L288.16 241.97L288.09 242.02L288.01 242.07L287.94 242.12L273.66 250.35L273.59 250.4L273.51 250.44L273.43 250.47L273.35 250.5L273.27 250.52L273.18 250.55L273.1 250.56L273.01 250.57L272.93 250.58L272.84 250.59L272.76 250.59L272.67 250.58L272.59 250.57L272.51 250.56L272.42 250.55L272.34 250.52L272.26 250.5L272.18 250.47L272.1 250.44L272.02 250.4L271.94 250.35L257.68 242.12L257.6 242.07L257.53 242.02L257.46 241.97L257.39 241.92L257.33 241.86L257.27 241.8L257.21 241.73L257.15 241.66L257.1 241.6L257.06 241.52L257.01 241.45L256.97 241.37L256.94 241.3L256.91 241.22L256.88 241.14L256.86 241.05L256.84 240.97L256.82 240.89L256.81 240.8L256.8 240.71L256.8 240.63L256.8 224.14L256.8 224.05L256.81 223.96L256.82 223.88L256.83 223.79L256.85 223.71L256.88 223.63L256.9 223.55L256.93 223.47L256.97 223.39L257.01 223.31L257.05 223.24L257.09 223.17L257.14 223.1L257.2 223.03L257.25 222.97L257.31 222.91L257.38 222.85L257.44 222.79L257.51 222.74L257.58 222.69L257.66 222.65L271.94 214.41L272.02 214.37L272.1 214.33L272.18 214.3L272.26 214.27L272.34 214.24L272.42 214.22L272.51 214.2L272.59 214.19L272.67 214.18L272.76 214.18L272.84 214.18L272.93 214.18L273.01 214.19Z" id="bPRMOmZNA"></path>
    <path d="M310.73 41.02L311.09 41.04L311.44 41.07L311.8 41.12L312.15 41.17L312.51 41.23L312.86 41.3L313.21 41.38L313.56 41.47L313.91 41.56L314.25 41.67L314.59 41.79L314.94 41.91L315.27 42.05L315.61 42.19L315.94 42.35L316.27 42.51L316.6 42.68L316.92 42.86L431.12 108.74L431.43 108.93L431.75 109.13L432.05 109.33L432.35 109.54L432.64 109.76L432.92 109.99L433.2 110.22L433.47 110.46L433.74 110.71L433.99 110.96L434.24 111.22L434.49 111.48L434.72 111.75L434.95 112.03L435.17 112.31L435.38 112.6L435.59 112.89L435.79 113.19L435.98 113.49L436.16 113.8L436.33 114.11L436.5 114.42L436.66 114.74L436.81 115.07L436.95 115.4L437.08 115.73L437.2 116.06L437.32 116.4L437.43 116.74L437.53 117.09L437.61 117.44L437.69 117.79L437.77 118.14L437.83 118.5L437.88 118.86L437.92 119.22L437.96 119.58L437.98 119.95L438 120.31L438 120.68L438 252.58L438 252.95L437.98 253.31L437.96 253.68L437.92 254.04L437.88 254.4L437.83 254.76L437.77 255.12L437.69 255.47L437.61 255.82L437.53 256.17L437.43 256.52L437.32 256.86L437.2 257.2L437.08 257.53L436.95 257.86L436.81 258.19L436.66 258.52L436.5 258.84L436.33 259.15L436.16 259.46L435.98 259.77L435.79 260.07L435.59 260.37L435.38 260.66L435.17 260.95L434.95 261.23L434.72 261.51L434.49 261.78L434.24 262.04L433.99 262.3L433.74 262.55L433.47 262.8L433.2 263.04L432.92 263.27L432.64 263.5L432.35 263.72L432.05 263.93L431.75 264.13L431.43 264.33L431.12 264.52L316.92 330.4L316.6 330.58L316.27 330.75L315.94 330.91L315.61 331.07L315.27 331.21L314.94 331.35L314.59 331.47L314.25 331.59L313.91 331.7L313.56 331.79L313.21 331.88L312.86 331.96L312.51 332.03L312.15 332.09L311.8 332.14L311.44 332.19L311.09 332.22L310.73 332.24L310.37 332.26L310.01 332.26L309.66 332.26L309.3 332.24L308.94 332.22L308.59 332.19L308.23 332.14L307.88 332.09L307.53 332.03L307.18 331.96L306.83 331.88L306.48 331.79L306.14 331.7L305.79 331.59L305.45 331.47L305.11 331.35L304.78 331.21L304.45 331.07L304.12 330.91L303.79 330.75L303.47 330.58L303.15 330.4L189.02 264.52L188.7 264.33L188.38 264.13L188.07 263.93L187.77 263.72L187.47 263.5L187.18 263.27L186.9 263.04L186.62 262.8L186.35 262.55L186.09 262.3L185.83 262.04L185.59 261.78L185.35 261.51L185.11 261.23L184.89 260.95L184.67 260.66L184.46 260.37L184.26 260.07L184.06 259.77L183.88 259.46L183.7 259.15L183.53 258.84L183.37 258.52L183.22 258.19L183.07 257.86L182.94 257.53L182.81 257.2L182.69 256.86L182.59 256.52L182.49 256.17L182.39 255.82L182.31 255.47L182.24 255.12L182.18 254.76L182.12 254.4L182.08 254.04L182.04 253.68L182.02 253.31L182 252.95L182 252.58L182 120.68L182 120.31L182.02 119.95L182.04 119.58L182.08 119.22L182.12 118.86L182.17 118.5L182.23 118.14L182.3 117.79L182.38 117.44L182.46 117.09L182.56 116.74L182.66 116.4L182.78 116.06L182.9 115.73L183.03 115.4L183.17 115.07L183.32 114.74L183.47 114.42L183.64 114.11L183.81 113.8L183.99 113.49L184.18 113.19L184.37 112.89L184.58 112.6L184.79 112.31L185.01 112.03L185.24 111.75L185.48 111.48L185.72 111.22L185.97 110.96L186.23 110.71L186.49 110.46L186.77 110.22L187.05 109.99L187.34 109.76L187.63 109.54L187.93 109.33L188.24 109.13L188.56 108.93L188.88 108.74L303.15 42.86L303.47 42.68L303.79 42.51L304.12 42.35L304.45 42.19L304.78 42.05L305.11 41.91L305.45 41.79L305.79 41.67L306.14 41.56L306.48 41.47L306.83 41.38L307.18 41.3L307.53 41.23L307.88 41.17L308.23 41.12L308.59 41.07L308.94 41.04L309.3 41.02L309.66 41L310.01 41L310.37 41L310.73 41.02ZM309.4 61.49L309.09 61.51L308.79 61.54L308.48 61.58L308.18 61.62L307.88 61.67L307.57 61.73L307.27 61.8L306.98 61.88L306.68 61.96L306.38 62.05L306.09 62.15L305.8 62.26L305.51 62.38L305.23 62.5L304.94 62.63L304.67 62.77L304.39 62.92L304.12 63.08L205.91 119.69L205.64 119.86L205.37 120.03L205.1 120.2L204.84 120.38L204.59 120.57L204.34 120.76L204.1 120.96L203.86 121.17L203.63 121.38L203.41 121.6L203.2 121.82L202.99 122.05L202.78 122.28L202.59 122.52L202.4 122.76L202.22 123.01L202.04 123.26L201.87 123.51L201.71 123.77L201.55 124.04L201.41 124.3L201.27 124.58L201.13 124.85L201 125.13L200.88 125.41L200.77 125.7L200.67 125.98L200.57 126.28L200.48 126.57L200.4 126.87L200.32 127.17L200.26 127.47L200.2 127.77L200.14 128.08L200.1 128.39L200.06 128.7L200.04 129.01L200.02 129.32L200 129.64L200 129.95L200 243.31L200 243.62L200.02 243.94L200.04 244.25L200.07 244.56L200.11 244.87L200.15 245.18L200.21 245.49L200.27 245.79L200.34 246.09L200.42 246.39L200.5 246.69L200.6 246.98L200.7 247.28L200.81 247.56L200.92 247.85L201.05 248.13L201.18 248.41L201.32 248.68L201.46 248.96L201.61 249.22L201.77 249.49L201.94 249.75L202.11 250L202.29 250.25L202.48 250.5L202.68 250.74L202.88 250.98L203.08 251.21L203.29 251.44L203.51 251.66L203.74 251.88L203.97 252.09L204.21 252.3L204.45 252.5L204.7 252.69L204.96 252.88L205.22 253.06L205.49 253.23L205.76 253.4L206.04 253.57L304.12 310.18L304.39 310.34L304.67 310.49L304.94 310.63L305.23 310.76L305.51 310.88L305.8 311L306.09 311.11L306.38 311.21L306.68 311.3L306.98 311.38L307.27 311.46L307.57 311.53L307.88 311.59L308.18 311.64L308.48 311.68L308.79 311.72L309.09 311.75L309.4 311.77L309.71 311.78L310.01 311.79L310.32 311.78L310.63 311.77L310.93 311.75L311.24 311.72L311.54 311.68L311.85 311.64L312.15 311.59L312.46 311.53L312.76 311.46L313.06 311.38L313.36 311.3L313.65 311.21L313.95 311.11L314.24 311L314.53 310.88L314.82 310.76L315.11 310.63L315.39 310.49L315.67 310.34L315.95 310.18L414.09 253.57L414.36 253.4L414.62 253.23L414.89 253.06L415.14 252.88L415.39 252.69L415.64 252.5L415.88 252.3L416.11 252.09L416.34 251.88L416.56 251.66L416.77 251.44L416.98 251.21L417.18 250.98L417.38 250.74L417.57 250.5L417.75 250.25L417.93 250L418.1 249.75L418.26 249.49L418.42 249.22L418.57 248.96L418.71 248.68L418.85 248.41L418.97 248.13L419.1 247.85L419.21 247.56L419.32 247.28L419.42 246.98L419.51 246.69L419.59 246.39L419.67 246.09L419.74 245.79L419.8 245.49L419.85 245.18L419.9 244.87L419.93 244.56L419.96 244.25L419.98 243.94L420 243.62L420 243.31L420 129.95L420 129.64L419.98 129.32L419.96 129.01L419.93 128.7L419.9 128.39L419.85 128.08L419.8 127.77L419.74 127.47L419.67 127.17L419.59 126.87L419.51 126.57L419.42 126.28L419.32 125.98L419.21 125.7L419.1 125.41L418.97 125.13L418.85 124.85L418.71 124.58L418.57 124.3L418.42 124.04L418.26 123.77L418.1 123.51L417.93 123.26L417.75 123.01L417.57 122.76L417.38 122.52L417.18 122.28L416.98 122.05L416.77 121.82L416.56 121.6L416.34 121.38L416.11 121.17L415.88 120.96L415.64 120.76L415.39 120.57L415.14 120.38L414.89 120.2L414.62 120.03L414.36 119.86L414.09 119.69L315.95 63.08L315.67 62.92L315.39 62.77L315.11 62.63L314.82 62.5L314.53 62.38L314.24 62.26L313.95 62.15L313.65 62.05L313.36 61.96L313.06 61.88L312.76 61.8L312.46 61.73L312.15 61.67L311.85 61.62L311.54 61.58L311.24 61.54L310.93 61.51L310.63 61.49L310.32 61.48L310.01 61.47L309.71 61.48L309.4 61.49Z" id="e14s0hi72t"></path>
  </defs>
  <g>
    <g>
      <use xlink:href="#c3WlYHo4Xz" opacity="1" fill="#dbad00" fill-opacity="1"></use>
      <g>
        <use xlink:href="#c3WlYHo4Xz" opacity="1" fill-opacity="0" stroke="#000000" stroke-width="1" stroke-opacity="0"></use>
      </g>
    </g>
    <g>
      <use xlink:href="#c2SsjBDuHH" opacity="1" fill="#dbad00" fill-opacity="1"></use>
      <g>
        <use xlink:href="#c2SsjBDuHH" opacity="1" fill-opacity="0" stroke="#000000" stroke-width="1" stroke-opacity="0"></use>
      </g>
    </g>
    <g>
      <use xlink:href="#bPRMOmZNA" opacity="1" fill="#dbad00" fill-opacity="1"></use>
      <g>
        <use xlink:href="#bPRMOmZNA" opacity="1" fill-opacity="0" stroke="#000000" stroke-width="1" stroke-opacity="0"></use>
      </g>
    </g>
    <g>
      <use xlink:href="#e14s0hi72t" opacity="1" fill="#dbad00" fill-opacity="1"></use>
      <g>
        <use xlink:href="#e14s0hi72t" opacity="1" fill-opacity="0" stroke="#000000" stroke-width="1" stroke-opacity="0"></use>
      </g>
    </g>
  </g>
</svg>
