<svg version="1.1"
  xmlns:xlink="http://www.w3.org/1999/xlink"
  xmlns="http://www.w3.org/2000/svg"
  viewBox="160.0000000000009 37 300 300"
  width="300" height="300">

<!--polygon points="310,50,430,120,430,255,310,320,190,255,190,120" fill="white"/-->

<path fill="white" d="M268.24 112.84C264.07 112.85 260.01 113.08 256 113.52C256 116.04 256.02 136.27 256.02 138.8C260.01 138.25 264.11 137.93 268.26 137.92C318.28 137.87 358.85 178.35 358.9 228.37C358.92 235.88 358 243.17 356.29 250.14C358.85 250.14 379.36 250.11 381.93 250.11C383.28 243.06 384 235.79 384 228.34C383.91 164.48 332.09 112.78 268.24 112.84" id="c3WlYHo4Xz"></path>
<path fill="white" d="M264.49 168.89C261.6 168.89 258.76 169.1 256 169.51C256 171.44 256 186.86 256 188.78C258.75 188.19 261.57 187.86 264.51 187.85C286.72 187.83 307.06 205.8 307.08 228.01C307.1 236.19 306.4 243.78 302.21 250.14C304.34 250.14 321.39 250.11 323.52 250.11C326.26 243.27 326.06 235.83 326.05 228C326.01 195.33 297.16 168.85 264.49 168.89" id="c2SsjBDuHH"></path>
  <g transform="translate(160,37) scale(3)" stroke-width="7">
    <path fill="none" stroke-linejoin="round" d="M50 3.5L90.37 26.70L90.39 73.23L50.08 96.50L9.72 73.31L9.70 26.77L50.00 3.50z"
      stroke="white" stroke-width="6"/>
    <path fill="white" d="M37.7 59L42.9 62L42.9 68L37.68 71.03L32.5 68L32.5 62L37.7 59"/>
  </g>

</svg>
